# xmcd CD database file
#
# Track frame offsets:
#	150
#	17646
#	34295
#	51033
#	67035
#	91816
#	114566
#	131015
#	152835
#	173279
#	191352
#	209280
#
# Disc length: 3005 seconds
#
# Revision: 0
# Processed by: cddbd v1.5.2PL0 Copyright (c) Steve Scherf et al.
# Submitted via: CDex 1.70beta2
#
DISCID=990bbb0c
DTITLE=Ward Thomas - From Where We Stand
DYEAR=2014
DGENRE=Country
TTITLE0=Push For The Stride
TTITLE1=Way Back Then
TTITLE2=Footnotes (Happy Ending)
TTITLE3=The Good And The Right
TTITLE4=From Where I Stand
TTITLE5=Take That Train
TTITLE6=Guest List
TTITLE7=Try
TTITLE8=Wasted Words
TTITLE9=Company
TTITLE10=Caledonia
TTITLE11=Town Called Ugley
EXTD=YEAR: 2014
EXTT0=
EXTT1=
EXTT2=
EXTT3=
EXTT4=
EXTT5=
EXTT6=
EXTT7=
EXTT8=
EXTT9=
EXTT10=
EXTT11=
PLAYORDER=
